<svg width="43" height="43" viewBox="0 0 43 43" fill="none" xmlns="http://www.w3.org/2000/svg">
<g clip-path="url(#clip0_2_492)">
<path d="M18.4769 18.4769V24.5231H24.5231V18.4769H18.4769ZM23.0116 23.0116H19.9885V19.9885H23.0116V23.0116Z" fill="#39FFFF"/>
<path d="M21.5 0C9.62668 0 0 9.62668 0 21.5C0 33.3733 9.62668 43 21.5 43C33.3733 43 43 33.3733 43 21.5C43 9.62668 33.3733 0 21.5 0ZM29.9948 20.743C30.3064 19.8643 31.1462 19.2315 32.1319 19.2315C33.383 19.2315 34.4005 20.2489 34.4005 21.5C34.4005 22.7511 33.383 23.7685 32.1319 23.7685C31.1462 23.7685 30.3064 23.1357 29.9948 22.257H27.5462V26.0346H32.8889V29.9948C33.7676 30.3064 34.4005 31.1486 34.4005 32.1319C34.4005 33.383 33.383 34.4005 32.1319 34.4005C30.8808 34.4005 29.8658 33.383 29.8658 32.1319C29.8658 31.1486 30.4963 30.3064 31.3774 29.9948V27.5462H25.801V29.9948C26.6797 30.3064 27.3125 31.1486 27.3125 32.1319C27.3125 33.383 26.2951 34.4005 25.044 34.4005C23.7929 34.4005 22.7754 33.383 22.7754 32.1319C22.7754 31.1486 23.4083 30.3064 24.287 29.9948V27.5462H18.7106V29.9948C19.5917 30.3064 20.2221 31.1486 20.2221 32.1319C20.2221 33.383 19.2047 34.4005 17.956 34.4005C16.7073 34.4005 15.6875 33.383 15.6875 32.1319C15.6875 31.1486 16.3203 30.3064 17.199 29.9948V27.5462H11.6226V29.9948C12.5013 30.3064 13.1342 31.1486 13.1342 32.1319C13.1342 33.383 12.1167 34.4005 10.8656 34.4005C9.61451 34.4005 8.59951 33.383 8.59951 32.1319C8.59951 31.1486 9.22993 30.3064 10.1111 29.9948V26.0346H15.4514V22.257H13.0052C12.6936 23.1357 11.8514 23.7685 10.8656 23.7685C9.61695 23.7685 8.59951 22.7511 8.59951 21.5C8.59951 20.2489 9.61695 19.2315 10.8656 19.2315C11.8514 19.2315 12.6936 19.8643 13.0052 20.743H15.4514V16.9654H10.1111V13.0052C9.22993 12.6936 8.59951 11.8514 8.59951 10.8681C8.59951 9.61695 9.61695 8.59951 10.8656 8.59951C12.1143 8.59951 13.1342 9.61695 13.1342 10.8681C13.1342 11.8514 12.5013 12.6936 11.6226 13.0052V15.4538H17.199V13.0052C16.3203 12.6936 15.6875 11.8514 15.6875 10.8681C15.6875 9.61695 16.7049 8.59951 17.956 8.59951C19.2071 8.59951 20.2221 9.61695 20.2221 10.8681C20.2221 11.8514 19.5917 12.6936 18.7106 13.0052V15.4538H24.287V13.0052C23.4083 12.6936 22.7754 11.8514 22.7754 10.8681C22.7754 9.61695 23.7929 8.59951 25.044 8.59951C26.2951 8.59951 27.3125 9.61695 27.3125 10.8681C27.3125 11.8514 26.6797 12.6936 25.801 13.0052V15.4538H31.3774V13.0052C30.4963 12.6936 29.8658 11.8514 29.8658 10.8681C29.8658 9.61695 30.8833 8.59951 32.1319 8.59951C33.3806 8.59951 34.4005 9.61695 34.4005 10.8681C34.4005 11.8514 33.7676 12.6936 32.8889 13.0052V16.9654H27.5462V20.743H29.9948Z" fill="#39FFFF"/>
</g>
<defs>
<clipPath id="clip0_2_492">
<rect width="43" height="43" fill="white"/>
</clipPath>
</defs>
</svg>
