<svg width="43" height="43" viewBox="0 0 43 43" fill="none" xmlns="http://www.w3.org/2000/svg">
<g clip-path="url(#clip0_2_469)">
<path d="M21.5 0C9.62668 0 0 9.62668 0 21.5C0 33.3733 9.62668 43 21.5 43C33.3733 43 43 33.3733 43 21.5C43 9.62668 33.3733 0 21.5 0ZM15.7775 34.5392C15.7775 32.6334 16.7268 30.8516 18.309 29.7904C18.3114 29.788 18.3138 29.788 18.3138 29.788C18.4623 29.6906 18.6595 29.732 18.7568 29.8804L21.5 34.0573L24.2432 29.8804L24.2456 29.8756C24.3454 29.7295 24.545 29.6906 24.691 29.7904C26.2732 30.8516 27.2225 32.6334 27.2225 34.5392C27.2225 37.7011 15.7775 37.7011 15.7775 34.5392ZM15.3151 20.8647L14.3609 20.0785C14.3317 20.0566 14.3147 20.0225 14.3147 19.9885C14.3098 19.9179 14.3634 19.857 14.4339 19.8521L15.668 19.7767C15.7191 19.7743 15.7629 19.7426 15.78 19.6939L16.2327 18.5451C16.2473 18.511 16.2717 18.4842 16.3057 18.472C16.3714 18.4453 16.4469 18.4769 16.4712 18.5451L16.9264 19.6939C16.9435 19.7426 16.9873 19.7743 17.0384 19.7767L18.2724 19.8521C18.3065 19.8546 18.3406 19.8692 18.3625 19.8984C18.4088 19.9519 18.399 20.0323 18.3455 20.0785L17.3913 20.8647C17.3524 20.8964 17.3353 20.9475 17.3475 20.9962L17.6591 22.1937C17.6664 22.2278 17.6615 22.2643 17.642 22.2959C17.6031 22.3544 17.5252 22.3714 17.4643 22.3349L16.4226 21.6704C16.3787 21.6412 16.3252 21.6412 16.2838 21.6704L15.2396 22.3349C15.2104 22.3519 15.1739 22.3592 15.1398 22.3495C15.0717 22.3324 15.0303 22.2619 15.0473 22.1937L15.3564 20.9962C15.3711 20.9475 15.354 20.8964 15.3151 20.8647ZM22.8047 18.2019C22.8144 18.2359 22.8071 18.2724 22.79 18.3017C22.7511 18.3625 22.6708 18.3795 22.6124 18.3406L21.5682 17.6761C21.5268 17.6493 21.4732 17.6493 21.4318 17.6761L20.3876 18.3406C20.3584 18.3601 20.3219 18.3674 20.2878 18.3576C20.2173 18.3406 20.1759 18.27 20.1953 18.2019L20.5045 17.0043C20.5166 16.9556 20.4996 16.9045 20.4607 16.8729L19.5065 16.0867C19.4797 16.0623 19.4627 16.0307 19.4603 15.9942C19.4554 15.9236 19.5114 15.8627 19.582 15.8579L20.816 15.7824C20.8647 15.78 20.9085 15.7483 20.928 15.7021L21.3807 14.5508C21.3929 14.5191 21.4197 14.4924 21.4513 14.4802C21.5195 14.4534 21.5925 14.4851 21.6193 14.5508L22.072 15.7021C22.089 15.7483 22.1329 15.78 22.184 15.7824L23.418 15.8579C23.4545 15.8579 23.4862 15.8773 23.5105 15.9041C23.5543 15.9601 23.547 16.0404 23.4911 16.0867L22.5369 16.8729C22.498 16.9045 22.4809 16.9556 22.4955 17.0043L22.8047 18.2019ZM19.6306 22.7803C20.1077 22.3008 20.7698 22.0063 21.5 22.0063C22.9604 22.0063 24.1434 23.1892 24.1434 24.6497C24.1434 26.1101 22.9604 27.2955 21.5 27.2955C20.0396 27.2955 18.8542 26.1101 18.8542 24.6497C18.8542 23.9194 19.1511 23.2598 19.6306 22.7803ZM22.3276 31.1583L21.5 32.4192L20.67 31.1583L20.799 30.2017C20.7235 30.1482 20.6676 30.0727 20.6383 29.9827L20.4412 29.3693C20.4266 29.3279 20.4193 29.2817 20.4193 29.2379C20.4193 29.0042 20.6091 28.8168 20.8404 28.8192H22.1596C22.2034 28.8168 22.2497 28.8241 22.2911 28.8387C22.5126 28.9117 22.6318 29.1478 22.5588 29.3693L22.3592 29.9827C22.3324 30.0703 22.2765 30.1482 22.201 30.1993L22.3276 31.1583ZM27.9527 22.1937C27.96 22.2278 27.9527 22.2643 27.9356 22.2959C27.8991 22.3544 27.8188 22.3714 27.758 22.3349L26.7162 21.6704C26.6748 21.6412 26.6188 21.6412 26.5774 21.6704L25.5357 22.3349C25.504 22.3519 25.4675 22.3592 25.4334 22.3495C25.3653 22.3324 25.3239 22.2619 25.3409 22.1937L25.6525 20.9962C25.6647 20.9475 25.6476 20.8964 25.6087 20.8647L24.6545 20.0785C24.6278 20.0566 24.6107 20.0225 24.6083 19.9885C24.6034 19.9179 24.657 19.857 24.7276 19.8521L25.9616 19.7767C26.0127 19.7743 26.0565 19.7426 26.0736 19.6939L26.5263 18.5451C26.5409 18.511 26.5677 18.4842 26.5993 18.472C26.6651 18.4453 26.7405 18.4769 26.7673 18.5451L27.22 19.6939C27.2371 19.7426 27.2809 19.7743 27.332 19.7767L28.5661 19.8521C28.6001 19.8546 28.6342 19.8692 28.6561 19.8984C28.7024 19.9519 28.6951 20.0323 28.6391 20.0785L27.6849 20.8647C27.646 20.8964 27.6289 20.9475 27.6436 20.9962L27.9527 22.1937ZM35.8974 24.0533C33.8431 24.0533 32.4824 25.7377 32.4824 27.4902C32.4824 28.3275 32.7916 29.1819 33.4853 29.8756C33.882 30.2699 33.882 30.9125 33.4853 31.3068L31.3068 33.4853C30.9125 33.882 30.2699 33.882 29.8756 33.4853C29.3206 32.9206 28.5855 32.5701 27.7969 32.4971C27.4099 31.2995 26.687 30.2383 25.7182 29.4375C28.6537 27.8772 30.489 24.8249 30.4865 21.5C30.4865 16.537 26.463 12.5135 21.4976 12.5135C16.5321 12.5135 12.511 16.5394 12.5135 21.5024C12.5135 24.8249 14.3463 27.8772 17.2818 29.4375C16.313 30.2383 15.5901 31.2995 15.2031 32.4946C14.4145 32.5701 13.6769 32.9206 13.1244 33.4853C12.7277 33.882 12.0875 33.882 11.6932 33.4853L9.51228 31.3068C9.11797 30.9101 9.11797 30.2699 9.51228 29.8756C10.206 29.1819 10.5175 28.3275 10.5175 27.4902C10.5175 25.7377 9.15448 24.0533 7.10257 24.0533C6.54274 24.0533 6.09 23.5982 6.09 23.0408V19.9592C6.09 19.3994 6.54274 18.9467 7.10257 18.9467C9.15448 18.9467 10.5175 17.2623 10.5175 15.5074C10.5175 14.67 10.206 13.8181 9.51228 13.1244C9.11797 12.7277 9.11797 12.0875 9.51228 11.6908L11.6932 9.51228C12.0875 9.11797 12.7301 9.11797 13.1244 9.51228C13.8181 10.206 14.6725 10.5175 15.5098 10.5175C17.2623 10.5175 18.9467 9.15448 18.9467 7.10014C18.9467 6.54274 19.3994 6.09 19.9592 6.09H23.0408C23.6006 6.09 24.0533 6.54274 24.0533 7.10014C24.0533 9.15448 25.7377 10.5175 27.4902 10.5175C28.3275 10.5175 29.1819 10.206 29.8756 9.51228C30.2699 9.11797 30.9125 9.11797 31.3068 9.51228L33.4877 11.6932C33.882 12.0875 33.882 12.7277 33.4877 13.1244C31.3409 15.2688 32.8646 18.9467 35.8974 18.9467C36.4573 18.9467 36.91 19.3994 36.91 19.9592V23.0408C36.91 23.6006 36.4573 24.0533 35.8974 24.0533Z" fill="#39FFFF"/>
</g>
<defs>
<clipPath id="clip0_2_469">
<rect width="43" height="43" fill="white"/>
</clipPath>
</defs>
</svg>
