<svg width="44" height="43" viewBox="0 0 44 43" fill="none" xmlns="http://www.w3.org/2000/svg">
<g clip-path="url(#clip0_2_474)">
<path d="M22 0C10.1267 0 0.5 9.62668 0.5 21.5C0.5 33.3733 10.1267 43 22 43C33.8733 43 43.5 33.3757 43.5 21.5C43.5 9.62425 33.8733 0 22 0ZM17.6236 25.8813L15.4475 28.0573C13.7656 26.3851 12.7287 24.0679 12.7287 21.5049C12.7287 16.4031 16.8812 12.2336 22 12.2336C24.5631 12.2336 26.8778 13.2802 28.5525 14.9524C30.2344 16.6343 31.2713 18.9588 31.2713 21.5049H28.1801C28.1801 19.7986 27.4888 18.2578 26.3764 17.1455H26.3594C25.23 16.0161 23.6965 15.3248 22 15.3248C18.5875 15.3248 15.8175 18.1094 15.8175 21.5049C15.8175 23.2038 16.5112 24.7519 17.6236 25.8813ZM32.8121 35.4009C32.8121 36.265 32.1135 36.9489 31.264 36.9489H18.9014C18.3903 36.9489 17.9449 36.7201 17.6649 36.3307C17.4751 36.0922 17.351 35.7636 17.351 35.4082V32.351C17.351 31.4455 17.755 30.6204 18.3903 30.0508C18.9258 29.5567 19.6511 29.2598 20.4422 29.2598V21.5122C20.4422 20.6554 21.1432 19.9641 21.9927 19.9641C22.8422 19.9641 23.5408 20.6651 23.5408 21.5122V26.1442C23.5408 25.2874 24.2418 24.5961 25.0912 24.5961C25.7825 24.5961 26.3594 25.0415 26.5565 25.6744C26.5979 25.8156 26.632 25.9811 26.632 26.1369V27.6874C26.632 26.8281 27.333 26.1369 28.1801 26.1369C28.7496 26.1369 29.2437 26.4509 29.5091 26.9109C29.6478 27.1421 29.7233 27.405 29.7233 27.6874V29.2354C29.7233 28.3786 30.4218 27.6874 31.2713 27.6874C31.7167 27.6874 32.1208 27.8748 32.3934 28.1644C32.6563 28.4444 32.8121 28.8143 32.8121 29.2184V35.4009ZM34.3626 21.5049C34.3626 18.1094 32.9703 15.0181 30.7285 12.7764C28.4941 10.5346 25.4028 9.14231 22 9.14231C15.1846 9.14231 9.63744 14.6895 9.63744 21.5049C9.63744 24.9174 11.0297 27.9916 13.2642 30.2407V30.2577L11.0711 32.4338C8.2768 29.6322 6.54619 25.7742 6.54619 21.5049C6.54619 12.9735 13.4686 6.05106 22 6.05106C26.2693 6.05106 30.1273 7.78167 32.9289 10.576C35.7232 13.3776 37.4538 17.2428 37.4538 21.5049H34.3626Z" fill="#39FFFF"/>
</g>
<defs>
<clipPath id="clip0_2_474">
<rect width="43" height="43" fill="white" transform="translate(0.5)"/>
</clipPath>
</defs>
</svg>
