<svg width="40" height="40" viewBox="0 0 40 40" fill="none" xmlns="http://www.w3.org/2000/svg">
<path fill-rule="evenodd" clip-rule="evenodd" d="M32.9167 20C32.9167 19.3097 32.357 18.75 31.6667 18.75H8.33337C7.64302 18.75 7.08337 19.3097 7.08337 20C7.08337 20.6903 7.64302 21.25 8.33337 21.25H31.6667C32.357 21.25 32.9167 20.6903 32.9167 20Z" fill="#3B444C"/>
<path fill-rule="evenodd" clip-rule="evenodd" d="M32.9167 11.6665C32.9167 10.9762 32.357 10.4165 31.6667 10.4165H8.33337C7.64302 10.4165 7.08337 10.9762 7.08337 11.6665C7.08337 12.3569 7.64302 12.9165 8.33337 12.9165H31.6667C32.357 12.9165 32.9167 12.3569 32.9167 11.6665Z" fill="#3B444C"/>
<path fill-rule="evenodd" clip-rule="evenodd" d="M32.9167 28.333C32.9167 27.6427 32.357 27.083 31.6667 27.083H8.33337C7.64302 27.083 7.08337 27.6427 7.08337 28.333C7.08337 29.0233 7.64302 29.583 8.33337 29.583H31.6667C32.357 29.583 32.9167 29.0233 32.9167 28.333Z" fill="#3B444C"/>
</svg>
